<svg viewBox="0 0 448.24 116.53" fill="none" xmlns="http://www.w3.org/2000/svg" xml:space="preserve">
<style type="text/css">
	.st0{fill:#576033;}
	.st1{fill:#86962A;}
</style>
<defs>
</defs>
<g>
	<g>
		<g>
			<path class="st0" d="M35.85,0.12c0.81,0,1.62,0,2.43,0c2.15,1.01,4.35,1.93,6.43,3.05c2.8,1.51,5.5,1.55,8.31,0.04
				c2.09-1.12,4.27-2.07,6.41-3.09c0.81,0,1.62,0,2.43,0c2.52,0.74,4.16,2.52,5.56,4.61c2.56,3.83,4.61,7.93,5.94,12.31
				c0.67,2.23,1.72,3.2,4,3.59c3.3,0.56,6.56,1.5,9.45,3.32c2.83,1.78,2.87,4.01-0.01,5.7c-1.69,0.99-3.58,1.68-5.45,2.32
				c-1.9,0.64-3.88,1.05-5.52,1.48c-0.47,3.8-0.92,7.43-1.37,11.14c4.61,0,9.45,0,14.45,0c-1.92,5.29-3.79,10.44-5.67,15.61
				c5.35,2.96,8.72,7.49,10.76,12.99c3.14,8.47,4.12,17.32,3.72,26.29c-0.33,7.32-4.02,12.5-11.01,15.1
				c-2.62,0.97-5.36,1.15-8.13,1.15c-19.77-0.01-39.55,0-59.32-0.01c-1.01,0-2.03-0.03-3.04-0.09c-9.2-0.53-15.72-7.04-16.15-16.24
				c-0.25-5.4,0.04-10.78,1.07-16.09c0.51-2.66,1.12-5.31,1.94-7.89c2.1-6.61,5.7-12.14,12.03-15.59
				c-2.06-5.05-4.1-10.06-6.21-15.23c5.02,0,9.86,0,14.45,0c-0.48-3.75-0.95-7.41-1.44-11.18c-1.27-0.32-2.81-0.65-4.32-1.1
				c-1.51-0.45-3.03-0.91-4.46-1.55c-1.16-0.52-2.31-1.2-3.27-2.03c-1.37-1.19-1.34-2.69,0.03-3.88c0.87-0.76,1.89-1.48,2.96-1.84
				c3.18-1.07,6.4-1.98,9.64-2.86c0.73-0.2,1.05-0.47,1.27-1.19c1.51-4.85,3.55-9.47,6.3-13.75C31.52,2.96,33.17,0.95,35.85,0.12z
				 M35.54,35.44c-0.01,0.06-0.02,0.12-0.03,0.17c-1.62,0.09-3.24,0.11-4.85,0.29c-0.58,0.06-1.55,0.42-1.59,0.73
				c-0.08,0.72,0.23,1.52,0.5,2.24c0.21,0.54,0.67,0.99,0.9,1.53c0.49,1.15,0.88,2.34,1.35,3.5c1.15,2.83,3.24,4.35,6.3,4.53
				c3.97,0.24,7.09-0.82,8.36-5.29c0.11-0.39,0.22-0.78,0.38-1.15c0.39-0.94,0.74-1.83,2.09-1.81c1.29,0.02,1.63,0.86,1.98,1.77
				c0.35,0.9,0.64,1.83,1,2.73c0.82,2.01,2.4,3.17,4.46,3.52c1.29,0.22,2.65,0.17,3.97,0.09c2.6-0.16,4.34-1.62,5.38-3.93
				c0.56-1.25,0.99-2.56,1.52-3.82c0.23-0.55,0.62-1.03,0.84-1.58c0.3-0.75,0.73-1.56,0.65-2.3c-0.03-0.33-1.14-0.72-1.79-0.79
				c-5.07-0.52-10.11-0.13-15.1,0.86c-2.03,0.4-3.98,0.33-6.01,0C42.45,36.19,38.99,35.87,35.54,35.44z M39.88,106.15
				c0.09,0,0.18,0.01,0.27,0.01c2.12-9.88,4.26-19.77,6.34-29.66c0.1-0.47-0.12-1.11-0.4-1.53c-0.93-1.37-2.09-2.6-2.94-4.02
				c-1.87-3.1-4.47-5.22-7.84-6.51c-1.37-0.52-2.64-1.29-4.19-2.06C34.09,77.16,36.99,91.65,39.88,106.15z M66.66,62.54
				c-0.31,0.07-0.47,0.08-0.6,0.14c-2.61,1.3-5.21,2.59-7.81,3.92c-0.34,0.17-0.64,0.49-0.88,0.8c-1.91,2.51-3.83,5.02-5.67,7.59
				c-0.3,0.42-0.44,1.12-0.34,1.63c1.71,8.19,3.46,16.38,5.21,24.56c0.37,1.71,0.76,3.41,1.14,5.12c0.07-0.01,0.13-0.02,0.2-0.03
				C60.82,91.73,63.73,77.19,66.66,62.54z"/>
		</g>
	</g>
	<g>
		<path class="st0" d="M141.74,107.54c-0.89,1.92-2.14,3.53-3.74,4.83c-1.6,1.3-3.51,2.3-5.73,2.98c-2.22,0.69-4.68,1.03-7.38,1.03
			c-3.79,0-7.51-0.65-11.15-1.95c-3.65-1.3-6.96-3.3-9.94-6l6.46-7.74c2.27,1.85,4.6,3.32,7,4.4c2.39,1.09,5.01,1.63,7.85,1.63
			c2.27,0,4.04-0.41,5.29-1.24c1.25-0.83,1.88-1.98,1.88-3.45v-0.14c0-0.71-0.13-1.34-0.39-1.88c-0.26-0.54-0.76-1.05-1.5-1.53
			c-0.74-0.47-1.76-0.95-3.06-1.42c-1.31-0.47-3-0.97-5.09-1.49c-2.52-0.61-4.8-1.3-6.84-2.06c-2.04-0.76-3.77-1.69-5.2-2.81
			c-1.42-1.11-2.53-2.5-3.31-4.16c-0.78-1.66-1.18-3.72-1.18-6.18v-0.14c0-2.27,0.42-4.32,1.27-6.14c0.85-1.82,2.03-3.4,3.56-4.72
			c1.53-1.33,3.36-2.34,5.48-3.05c2.12-0.71,4.46-1.07,7.02-1.07c3.65,0,7,0.54,10.05,1.63c3.05,1.09,5.86,2.65,8.42,4.69
			l-5.68,8.24c-2.23-1.52-4.4-2.71-6.54-3.59c-2.13-0.88-4.26-1.31-6.39-1.31s-3.73,0.42-4.79,1.24c-1.07,0.83-1.6,1.86-1.6,3.09
			v0.14c0,0.81,0.15,1.5,0.46,2.1c0.31,0.59,0.87,1.13,1.67,1.6c0.81,0.47,1.91,0.92,3.31,1.35c1.4,0.43,3.17,0.92,5.31,1.49
			c2.52,0.66,4.76,1.41,6.73,2.24c1.97,0.83,3.63,1.82,4.99,2.98c1.35,1.16,2.37,2.52,3.06,4.08c0.69,1.56,1.03,3.43,1.03,5.61v0.14
			C143.08,103.43,142.64,105.62,141.74,107.54z"/>
		<path class="st0" d="M152.6,115.67V65.95h37.43v9.73H163.4v10.09h23.44v9.73H163.4v10.44h26.99v9.73H152.6z"/>
		<path class="st0" d="M239.9,111.34c-1.37,1.09-2.88,2.02-4.51,2.81c-1.63,0.78-3.42,1.37-5.36,1.78c-1.94,0.4-4.12,0.6-6.53,0.6
			c-3.65,0-7.03-0.66-10.16-1.99s-5.82-3.14-8.1-5.43c-2.27-2.3-4.05-5.01-5.33-8.13c-1.28-3.13-1.92-6.46-1.92-10.02v-0.14
			c0-3.55,0.64-6.88,1.92-9.98c1.28-3.1,3.05-5.82,5.33-8.17s5-4.19,8.17-5.54c3.17-1.35,6.68-2.02,10.51-2.02
			c2.32,0,4.44,0.19,6.36,0.57c1.92,0.38,3.66,0.9,5.22,1.56c1.56,0.66,3.01,1.47,4.33,2.42c1.33,0.95,2.56,1.99,3.69,3.13
			l-6.96,8.03c-1.94-1.75-3.92-3.13-5.93-4.12c-2.01-0.99-4.27-1.49-6.78-1.49c-2.08,0-4.01,0.4-5.79,1.21
			c-1.78,0.81-3.3,1.92-4.58,3.34c-1.28,1.42-2.27,3.07-2.98,4.94c-0.71,1.87-1.07,3.87-1.07,6v0.14c0,2.13,0.36,4.14,1.07,6.04
			c0.71,1.89,1.69,3.55,2.95,4.97c1.25,1.42,2.77,2.55,4.55,3.37c1.78,0.83,3.73,1.24,5.86,1.24c2.84,0,5.24-0.52,7.21-1.56
			c1.96-1.04,3.92-2.46,5.86-4.26l6.96,7.03C242.6,109.02,241.27,110.25,239.9,111.34z"/>
		<path class="st0" d="M282.8,115.67l-10.66-15.91h-8.59v15.91h-10.94V65.95h22.73c5.92,0,10.52,1.44,13.82,4.33
			c3.29,2.89,4.94,6.91,4.94,12.08v0.14c0,4.03-0.98,7.31-2.95,9.84c-1.96,2.53-4.53,4.39-7.71,5.58l12.15,17.76H282.8z
			 M283.02,82.93c0-2.37-0.76-4.14-2.27-5.33c-1.52-1.18-3.62-1.78-6.32-1.78h-10.87V90.1h11.08c2.7,0,4.77-0.64,6.22-1.92
			c1.44-1.28,2.17-2.98,2.17-5.11V82.93z"/>
		<path class="st0" d="M303.97,115.67V65.95h37.43v9.73h-26.64v10.09h23.44v9.73h-23.44v10.44h26.99v9.73H303.97z"/>
		<path class="st0" d="M374.08,76.04v39.64h-10.94V76.04h-15.13V65.95h41.2v10.09H374.08z"/>
		<path class="st0" d="M446.25,100.79c-1.33,3.1-3.16,5.82-5.5,8.17c-2.34,2.34-5.14,4.19-8.38,5.54
			c-3.24,1.35-6.78,2.02-10.62,2.02c-3.83,0-7.36-0.67-10.58-2.02c-3.22-1.35-6-3.17-8.35-5.47c-2.34-2.3-4.17-5-5.47-8.1
			c-1.3-3.1-1.95-6.43-1.95-9.98v-0.14c0-3.55,0.66-6.88,1.99-9.98c1.33-3.1,3.16-5.82,5.5-8.17c2.34-2.34,5.14-4.19,8.38-5.54
			c3.24-1.35,6.78-2.02,10.62-2.02s7.36,0.67,10.58,2.02c3.22,1.35,6,3.17,8.35,5.47c2.34,2.3,4.17,5,5.47,8.1
			c1.3,3.1,1.95,6.43,1.95,9.98v0.14C448.24,94.36,447.57,97.69,446.25,100.79z M436.8,90.81c0-2.13-0.37-4.14-1.1-6.04
			c-0.73-1.89-1.78-3.55-3.13-4.97c-1.35-1.42-2.95-2.54-4.79-3.37c-1.85-0.83-3.86-1.24-6.04-1.24c-2.23,0-4.25,0.4-6.07,1.21
			c-1.82,0.81-3.39,1.92-4.69,3.34c-1.3,1.42-2.32,3.07-3.05,4.94c-0.73,1.87-1.1,3.87-1.1,6v0.14c0,2.13,0.37,4.14,1.1,6.04
			c0.73,1.89,1.78,3.55,3.13,4.97c1.35,1.42,2.94,2.55,4.76,3.37c1.82,0.83,3.85,1.24,6.07,1.24c2.18,0,4.19-0.4,6.04-1.21
			c1.85-0.8,3.42-1.92,4.72-3.34c1.3-1.42,2.32-3.07,3.05-4.94c0.73-1.87,1.1-3.87,1.1-6V90.81z"/>
	</g>
	<g>
		<path class="st1" d="M166.95,9.21c-1.54-1.44-3.52-2.6-5.95-3.46c-2.43-0.87-5.08-1.43-7.94-1.7c-2.86-0.26-5.83-0.28-8.91-0.04
			c-3.08,0.24-6.05,0.73-8.91,1.48c-2.86,0.75-5.5,1.72-7.9,2.92c-2.41,1.2-4.39,2.61-5.95,4.22c-1.56,1.61-2.59,3.42-3.07,5.41
			c-0.48,2-0.22,4.15,0.79,6.46c0.19,0.48,0.18,0.95-0.04,1.41c-0.22,0.46-0.54,0.78-0.97,0.97c-0.43,0.19-0.88,0.22-1.33,0.07
			c-0.46-0.14-0.83-0.58-1.12-1.3c-1.3-2.55-1.78-4.97-1.44-7.25c0.34-2.28,1.26-4.39,2.78-6.31c1.52-1.92,3.5-3.65,5.95-5.19
			c2.45-1.54,5.18-2.83,8.19-3.86c3.01-1.03,6.18-1.81,9.52-2.34c3.34-0.53,6.61-0.76,9.81-0.69c3.2,0.07,6.25,0.48,9.16,1.23
			c2.91,0.75,5.42,1.84,7.54,3.28L166.95,9.21z M166.8,6.04c-2.16,2.69-4.51,5.62-7.03,8.77c-2.53,3.15-5.13,6.37-7.83,9.67
			c-2.69,3.3-5.41,6.59-8.15,9.88c-2.74,3.29-5.41,6.42-8.01,9.38s-5.05,5.66-7.36,8.12c-2.31,2.45-4.38,4.52-6.2,6.2
			c-0.43,0.38-0.88,0.55-1.33,0.5c-0.46-0.05-0.83-0.23-1.12-0.54c-0.29-0.31-0.46-0.71-0.5-1.19c-0.05-0.48,0.12-0.94,0.5-1.37
			c1.78-1.63,3.82-3.69,6.13-6.17c2.31-2.48,4.75-5.18,7.32-8.12c2.57-2.93,5.23-6.04,7.97-9.31c2.74-3.27,5.45-6.55,8.12-9.85
			c2.67-3.29,5.25-6.49,7.76-9.6c2.5-3.1,4.81-5.98,6.93-8.62L166.8,6.04z M127.63,37.93c1.44-0.19,3.07-0.24,4.87-0.14
			c1.8,0.1,3.68,0.3,5.63,0.61c1.95,0.31,3.92,0.71,5.92,1.19c2,0.48,3.91,0.99,5.74,1.52c1.97,0.53,3.74,1.08,5.3,1.66
			c1.56,0.58,2.87,1.06,3.93,1.44l-1.52,3.39c-1.01-0.38-2.26-0.85-3.75-1.41c-1.49-0.55-3.15-1.09-4.98-1.62
			c-1.73-0.48-3.55-0.94-5.45-1.37c-1.9-0.43-3.75-0.8-5.56-1.12c-1.8-0.31-3.55-0.53-5.23-0.65c-1.68-0.12-3.17-0.08-4.47,0.11
			c-0.48,0.1-0.9,0-1.26-0.29c-0.36-0.29-0.59-0.65-0.69-1.08c-0.1-0.43-0.04-0.87,0.18-1.3C126.51,38.43,126.95,38.12,127.63,37.93
			z M164.35,5.32c0.05-0.58,0.29-0.95,0.72-1.12c0.43-0.17,0.89-0.18,1.37-0.04c0.48,0.14,0.89,0.42,1.23,0.83
			c0.34,0.41,0.46,0.9,0.36,1.48c-0.53,3.42-1.14,6.94-1.84,10.57c-0.7,3.63-1.41,7.26-2.13,10.89c-0.72,3.63-1.41,7.2-2.06,10.71
			c-0.65,3.51-1.22,6.85-1.7,10.03c-0.1,0.39-0.14,0.72-0.14,1.01s0,0.55,0,0.79c0,1.4,0.29,2.42,0.87,3.07
			c0.58,0.65,1.3,0.97,2.16,0.97c1.44,0,3.07-0.59,4.87-1.77c1.8-1.18,3.55-2.95,5.23-5.3c0.29-0.43,0.67-0.71,1.15-0.83
			c0.48-0.12,0.91-0.1,1.3,0.07c0.38,0.17,0.65,0.46,0.79,0.87c0.14,0.41,0.02,0.93-0.36,1.55c-2.02,2.89-4.2,5.11-6.53,6.67
			c-2.33,1.56-4.49,2.34-6.46,2.34c-1.97,0-3.57-0.63-4.8-1.88c-1.23-1.25-1.84-3.17-1.84-5.77c0-0.38,0-0.78,0-1.19
			c0-0.41,0.05-0.8,0.14-1.19c0.48-3.22,1.06-6.63,1.73-10.21c0.67-3.58,1.36-7.23,2.06-10.93c0.7-3.7,1.38-7.38,2.06-11.04
			C163.22,12.27,163.82,8.73,164.35,5.32z"/>
		<path class="st1" d="M181.02,26.45c0.24-0.48,0.58-0.76,1.01-0.83c0.43-0.07,0.85,0,1.26,0.22c0.41,0.22,0.72,0.52,0.94,0.9
			c0.22,0.39,0.2,0.82-0.04,1.3c-1.44,3.08-2.77,6.23-3.97,9.45c-1.01,2.74-1.95,5.78-2.81,9.13c-0.87,3.34-1.35,6.6-1.44,9.78
			c0,0.53-0.19,0.94-0.58,1.23c-0.39,0.29-0.79,0.43-1.23,0.43c-0.43,0-0.82-0.13-1.15-0.4c-0.34-0.27-0.5-0.69-0.5-1.26
			c0.1-3.32,0.58-6.73,1.44-10.24c0.87-3.51,1.83-6.73,2.89-9.67C178.08,33.07,179.48,29.73,181.02,26.45z M189.53,56.54
			c-0.14,0.53-0.42,0.93-0.83,1.19c-0.41,0.26-0.83,0.38-1.26,0.36c-0.43-0.02-0.81-0.21-1.12-0.54c-0.31-0.34-0.45-0.82-0.4-1.44
			c0.1-1.44,0.52-3.13,1.26-5.05c0.75-1.92,1.53-3.87,2.34-5.84c0.87-2.12,1.67-4.22,2.42-6.31c0.75-2.09,1.12-3.76,1.12-5.01
			c0-1.01-0.43-1.51-1.3-1.51c-1.44,0-2.93,0.52-4.47,1.55c-1.54,1.04-2.98,2.29-4.33,3.75c-1.35,1.47-2.53,3.01-3.54,4.62
			c-1.01,1.61-1.68,2.99-2.02,4.15l-2.96-2.02c0.62-1.2,1.52-2.69,2.67-4.47c1.15-1.78,2.5-3.5,4.04-5.16
			c1.54-1.66,3.21-3.08,5.01-4.26c1.8-1.18,3.67-1.77,5.59-1.77c1.83,0,3.1,0.47,3.82,1.41c0.72,0.94,1.08,2.18,1.08,3.72
			c0,1.68-0.4,3.64-1.19,5.88c-0.79,2.24-1.67,4.53-2.63,6.89c-0.77,1.83-1.46,3.66-2.06,5.48
			C190.19,53.97,189.77,55.43,189.53,56.54z M216.37,53.08c-2.02,1.54-3.72,2.67-5.09,3.39c-1.37,0.72-2.61,1.08-3.72,1.08
			c-1.59,0-2.73-0.52-3.43-1.55c-0.7-1.03-1.05-2.39-1.05-4.08c0-1.63,0.35-3.57,1.05-5.81c0.7-2.24,1.57-4.39,2.63-6.46
			c1.06-2.21,1.59-3.97,1.59-5.27c0-1.39-0.58-2.09-1.73-2.09c-1.49,0-3.4,0.94-5.74,2.81c-2.33,1.88-4.7,4.86-7.11,8.95l-2.96-1.59
			c2.74-4.62,5.54-8.07,8.4-10.35c2.86-2.28,5.33-3.43,7.4-3.43c1.63,0,2.93,0.49,3.9,1.48c0.96,0.99,1.44,2.39,1.44,4.22
			c0,1.88-0.67,4.16-2.02,6.85c-0.96,1.83-1.74,3.7-2.34,5.63c-0.6,1.92-0.9,3.61-0.9,5.05c0,1.35,0.29,2.02,0.87,2.02
			c1.25,0,2.83-0.67,4.73-2.02c1.9-1.35,3.81-3.15,5.74-5.41c0.43-0.53,0.89-0.82,1.37-0.87c0.48-0.05,0.85,0.08,1.12,0.4
			c0.26,0.31,0.38,0.76,0.36,1.33c-0.02,0.58-0.28,1.18-0.76,1.8c-0.53,0.67-1.11,1.31-1.73,1.91
			C217.76,51.69,217.09,52.36,216.37,53.08z"/>
		<path class="st1" d="M231.81,52.86c-1.83,1.83-3.51,3.16-5.05,4c-1.54,0.84-2.96,1.26-4.26,1.26c-1.68,0-3.03-0.65-4.04-1.95
			c-1.01-1.3-1.51-3.2-1.51-5.7c0-2.4,0.56-5.42,1.7-9.05c1.13-3.63,2.92-7.85,5.38-12.66c0.19-0.43,0.54-0.73,1.05-0.9
			c0.5-0.17,0.97-0.18,1.41-0.04c0.43,0.14,0.76,0.43,0.97,0.87c0.22,0.43,0.13,1.03-0.25,1.8c-2.31,4.52-3.99,8.44-5.05,11.76
			c-1.06,3.32-1.59,6.06-1.59,8.22c0,2.69,0.65,4.04,1.95,4.04c1.06,0,2.38-0.51,3.97-1.52c1.59-1.01,3.37-2.67,5.34-4.98V52.86z
			 M231.23,22.56c-0.34,0.67-0.78,1.11-1.33,1.3c-0.55,0.19-1.07,0.23-1.55,0.11c-0.48-0.12-0.83-0.36-1.05-0.72
			c-0.22-0.36-0.18-0.78,0.11-1.26c0.58-1.06,1.11-1.98,1.59-2.78c0.48-0.79,1.06-1.72,1.73-2.78c0.34-0.53,0.75-0.85,1.23-0.97
			c0.48-0.12,0.94-0.11,1.37,0.04c0.43,0.14,0.75,0.41,0.94,0.79c0.19,0.39,0.17,0.82-0.07,1.3c-0.34,0.53-0.63,0.99-0.87,1.37
			c-0.24,0.39-0.47,0.76-0.69,1.12c-0.22,0.36-0.43,0.73-0.65,1.12C231.77,21.57,231.52,22.03,231.23,22.56z M231.81,48.03
			l1.15-1.52c0.43-0.58,0.88-0.88,1.33-0.9c0.46-0.02,0.83,0.12,1.12,0.43c0.29,0.31,0.42,0.76,0.4,1.33s-0.28,1.18-0.76,1.8
			c-0.53,0.72-1.07,1.38-1.62,1.98c-0.55,0.6-1.09,1.17-1.62,1.7V48.03z"/>
		<path class="st1" d="M254.39,28.62c0.19-0.34,0.38-0.62,0.58-0.87c0.19-0.24,0.43-0.42,0.72-0.54c0.29-0.12,0.67-0.13,1.15-0.04
			c0.38,0.14,0.65,0.35,0.79,0.61c0.14,0.27,0.24,0.54,0.29,0.83c0.05,0.34,0.02,0.67-0.07,1.01c-0.39,1.25-0.75,2.42-1.08,3.5
			c-0.34,1.08-0.65,2.14-0.94,3.17c-0.29,1.04-0.57,2.07-0.83,3.1c-0.27,1.03-0.57,2.13-0.9,3.28c-0.87,3.03-1.72,5.98-2.56,8.84
			c-0.84,2.86-1.73,5.56-2.67,8.08c-0.94,2.53-1.94,4.83-2.99,6.93c-1.06,2.09-2.24,3.91-3.54,5.45c-1.59,1.88-3.21,3.21-4.87,4
			c-1.66,0.79-3.33,1.19-5.01,1.19c-1.44,0-2.79-0.23-4.04-0.69c-1.25-0.46-2.36-1.07-3.32-1.84c-0.96-0.77-1.78-1.67-2.45-2.71
			c-0.67-1.03-1.15-2.13-1.44-3.28c-0.05-0.29-0.05-0.58,0-0.87c0.05-0.24,0.16-0.48,0.32-0.72c0.17-0.24,0.47-0.41,0.9-0.5
			c0.43-0.14,0.78-0.16,1.05-0.04c0.27,0.12,0.49,0.28,0.69,0.47c0.19,0.19,0.36,0.46,0.5,0.79c0.39,1.63,1.27,3,2.67,4.11
			c1.4,1.11,3.1,1.66,5.12,1.66c1.15,0,2.33-0.3,3.54-0.9c1.2-0.6,2.4-1.6,3.61-2.99c1.15-1.44,2.21-3.15,3.17-5.12
			c0.96-1.97,1.89-4.16,2.78-6.57c0.89-2.4,1.75-4.98,2.6-7.72c0.84-2.74,1.67-5.6,2.49-8.59c0.34-1.15,0.64-2.25,0.9-3.28
			c0.26-1.03,0.54-2.07,0.83-3.1c0.29-1.03,0.6-2.09,0.94-3.17C253.64,31.04,254,29.87,254.39,28.62z M253.09,46.01
			c-1.25,2.12-2.5,3.9-3.75,5.34c-1.25,1.44-2.49,2.6-3.71,3.46c-1.23,0.87-2.39,1.49-3.5,1.88c-1.11,0.39-2.12,0.58-3.03,0.58
			c-1.68,0-3.08-0.49-4.18-1.48c-1.11-0.99-1.85-2.13-2.24-3.43c-0.39-1.39-0.42-2.98-0.11-4.76c0.31-1.78,0.85-3.61,1.62-5.48
			c0.77-1.88,1.74-3.73,2.92-5.56c1.18-1.83,2.45-3.45,3.82-4.87c1.37-1.42,2.79-2.56,4.26-3.43c1.47-0.87,2.9-1.3,4.29-1.3
			c1.11,0,2.22,0.24,3.35,0.72c1.13,0.48,2.25,1.25,3.36,2.31l-2.45,2.6c-1.4-1.35-2.81-2.02-4.26-2.02c-1.01,0-2.09,0.37-3.25,1.12
			c-1.15,0.75-2.26,1.73-3.32,2.96c-1.06,1.23-2.07,2.61-3.03,4.15c-0.96,1.54-1.76,3.08-2.38,4.62c-0.63,1.54-1.08,3.02-1.37,4.44
			c-0.29,1.42-0.29,2.63,0,3.64c0.14,0.58,0.47,1.08,0.97,1.52c0.5,0.43,1.17,0.65,1.98,0.65c0.67,0,1.47-0.14,2.38-0.43
			c0.91-0.29,1.86-0.78,2.85-1.48c0.99-0.7,1.98-1.66,2.99-2.89c1.01-1.23,1.92-2.78,2.74-4.65L253.09,46.01z M247.53,53.8
			c1.11,0.05,2.19,0,3.25-0.14c1.06-0.14,2.1-0.46,3.14-0.94c1.03-0.48,2.12-1.19,3.25-2.13c1.13-0.94,2.32-2.2,3.57-3.79
			c0.48-0.62,0.96-0.97,1.44-1.05c0.48-0.07,0.87,0.04,1.15,0.32c0.29,0.29,0.46,0.7,0.5,1.23c0.05,0.53-0.1,1.06-0.43,1.59
			c-1.54,1.88-2.98,3.38-4.33,4.51c-1.35,1.13-2.68,1.98-4,2.56c-1.32,0.58-2.69,0.95-4.11,1.12c-1.42,0.17-2.97,0.25-4.65,0.25
			L247.53,53.8z"/>
		<path class="st1" d="M273.94,28.11c0.48-0.29,0.95-0.36,1.41-0.22c0.46,0.14,0.8,0.4,1.05,0.76c0.24,0.36,0.32,0.78,0.25,1.26
			c-0.07,0.48-0.4,0.94-0.97,1.37c-2.02,1.11-3.78,2.59-5.27,4.44c-1.49,1.85-2.72,3.62-3.68,5.3c-0.29,0.48-0.61,1.09-0.97,1.84
			c-0.36,0.75-0.69,1.55-0.97,2.42c-0.29,0.87-0.54,1.77-0.76,2.71c-0.22,0.94-0.33,1.82-0.33,2.63c0,0.72,0.17,1.4,0.51,2.02
			c0.34,0.63,0.77,1.06,1.3,1.3c0.87,0.24,1.74,0.23,2.63-0.04c0.89-0.26,1.75-0.69,2.6-1.26s1.66-1.29,2.45-2.13
			c0.79-0.84,1.53-1.74,2.2-2.71c0.34-0.43,0.84-1.21,1.51-2.34c0.67-1.13,1.36-2.39,2.06-3.79c0.7-1.39,1.31-2.82,1.84-4.29
			c0.53-1.47,0.79-2.78,0.79-3.93c0-0.53-0.12-0.97-0.36-1.33c-0.24-0.36-0.7-0.56-1.37-0.61c-0.39-0.05-0.71,0.21-0.97,0.76
			c-0.27,0.55-0.4,1.24-0.4,2.06c0,0.91,0.23,1.92,0.69,3.03c0.46,1.11,1.17,2.24,2.13,3.39c0.96,1.06,1.81,1.74,2.56,2.06
			c0.75,0.31,1.45,0.47,2.13,0.47c0.82,0,1.62-0.19,2.42-0.58c0.79-0.38,1.67-1.15,2.63-2.31c0.43-0.48,0.88-0.75,1.33-0.79
			c0.46-0.05,0.83,0.07,1.12,0.36c0.29,0.29,0.46,0.67,0.5,1.15c0.05,0.48-0.14,0.99-0.58,1.52c-1.4,1.68-2.63,2.81-3.72,3.39
			s-2.32,0.87-3.71,0.87c-1.11,0-2.25-0.22-3.43-0.65c-1.18-0.43-2.51-1.49-4-3.17c-1.3-1.54-2.24-3.07-2.81-4.58
			s-0.87-2.9-0.87-4.15c0-1.92,0.51-3.49,1.52-4.69c1.01-1.2,2.21-1.78,3.61-1.73c1.92,0.05,3.27,0.6,4.04,1.66
			c0.77,1.06,1.15,2.36,1.15,3.9c0,1.4-0.29,2.93-0.87,4.62c-0.58,1.68-1.25,3.32-2.02,4.91c-0.77,1.59-1.54,3.02-2.31,4.29
			c-0.77,1.27-1.35,2.18-1.73,2.71c-0.87,1.15-1.84,2.26-2.92,3.32c-1.08,1.06-2.21,1.96-3.39,2.71c-1.18,0.75-2.39,1.26-3.64,1.55
			c-1.25,0.29-2.53,0.24-3.82-0.14c-1.68-0.53-2.84-1.41-3.46-2.63c-0.63-1.23-0.94-2.61-0.94-4.15c0-1.01,0.12-2.06,0.36-3.14
			c0.24-1.08,0.54-2.14,0.9-3.17c0.36-1.03,0.73-2.01,1.12-2.92c0.38-0.91,0.75-1.66,1.08-2.24c0.53-0.91,1.14-1.88,1.84-2.89
			c0.7-1.01,1.49-2.02,2.38-3.03c0.89-1.01,1.85-1.96,2.89-2.85C271.69,29.5,272.78,28.74,273.94,28.11z"/>
	</g>
</g>
</svg>